#!OML:ASF E:\Mandelcareful walks\Project 1\Capture day 1\Session 1\Subject1.ASF
:FULLY-SPECIFIED
:DEGREES
742
root 27.7449 14.8213 1.51849 -158.649 -20.0341 175.551
lowerback 32.6226 1.21419 -2.67002
upperback 6.87072 -0.8786 0.340588
thorax -9.16429 -0.998584 2.21211
lowerneck -25.1777 -10.0107 -12.5512
upperneck 6.0835 -11.6701 14.0656
head 7.4824 -4.91303 5.00533
rclavicle 2.08724e-014 2.04748e-014
rhumerus -23.6457 -3.45481 -73.8249
rradius 68.2966
rwrist -14.6538
rhand -18.2459 -19.0458
rfingers 7.12502
rthumb 8.033 -48.8731
lclavicle 2.08724e-014 2.04748e-014
lhumerus -6.8868 -35.2188 74.5793
lradius 73.6454
lwrist 25.6036
lhand -27.4481 -18.0602
lfingers 7.12502
lthumb -0.852836 11.9178
rfemur -75.8488 -17.7433 36.5034
rtibia 59.616
rfoot -4.98135 1.2515
rtoes 0.570765
lfemur -46.6982 9.5638 -32.4586
ltibia 69.5543
lfoot -41.3573 14.8974
ltoes -5.31415
743
root 27.6256 14.8163 1.42007 -158.738 -20.0457 174.889
lowerback 32.5017 1.06179 -2.54161
upperback 6.94141 -1.02046 0.469169
thorax -9.03233 -1.07412 2.32833
lowerneck -25.3046 -9.89575 -12.305
upperneck 6.19651 -11.4407 13.1703
head 7.41852 -4.86084 4.70127
rclavicle -1.23246e-014 -2.36554e-014
rhumerus -23.5448 -3.68817 -73.2938
rradius 68.3434
rwrist -15.2768
rhand -20.0583 -20.3899
rfingers 7.12502
rthumb 6.2835 -50.2767
lclavicle -1.23246e-014 -2.36554e-014
lhumerus -6.34171 -35.1004 75.3864
lradius 73.4574
lwrist 24.8935
lhand -27.2516 -17.8721
lfingers 7.12502
lthumb -0.663096 12.1066
rfemur -74.8714 -16.8331 34.7508
rtibia 60.1272
rfoot -6.12715 -1.86718
rtoes 6.36416
lfemur -45.4141 9.40806 -33.258
ltibia 69.1047
lfoot -41.6959 14.7973
ltoes -4.979
744
root 27.5122 14.7872 1.31556 -158.627 -20.0772 174.181
lowerback 32.2272 0.847555 -2.43993
upperback 6.98507 -1.2367 0.556634
thorax -8.86556 -1.17833 2.43881
lowerneck -25.5223 -9.76695 -11.9573
upperneck 6.32679 -11.2148 12.2149
head 7.36851 -4.81335 4.35904
rclavicle 3.85642e-014 -4.33351e-014
rhumerus -23.4503 -3.63988 -72.6968
rradius 68.4866
rwrist -15.9376
rhand -19.7438 -20.1389
rfingers 7.12502
rthumb 6.58711 -50.0165
lclavicle 3.85642e-014 -4.33351e-014
lhumerus -5.97069 -34.9206 76.0537
lradius 73.4157
lwrist 24.2552
lhand -26.9737 -18.0596
lfingers 7.12502
lthumb -0.394729 11.9198
rfemur -74.1917 -16.0274 33.3716
rtibia 60.4526
rfoot -6.82368 -4.29521
rtoes 7.3545
lfemur -44.4183 8.83915 -34.0449
ltibia 68.8464
lfoot -42.076 14.9651
ltoes -4.98084
745
root 27.3996 14.7795 1.20572 -158.587 -20.0505 173.664
lowerback 31.7778 0.579277 -2.11457
upperback 7.43922 -1.45016 0.538803
thorax -8.89935 -1.27251 2.48965
lowerneck -25.7059 -9.66831 -11.9564
upperneck 6.42329 -10.989 11.6943
head 7.3588 -4.74246 4.2176
rclavicle -3.69739e-014 -2.38542e-015
rhumerus -23.2782 -3.43604 -72.1523
rradius 68.6256
rwrist -16.4153
rhand -19.8628 -20.4881
rfingers 7.12502
rthumb 6.47229 -50.3692
lclavicle -3.69739e-014 -2.38542e-015
lhumerus -5.65157 -34.9582 76.2632
lradius 73.6556
lwrist 24.049
lhand -26.449 -18.2122
lfingers 7.12502
lthumb 0.112087 11.7676
rfemur -73.2754 -14.8942 31.1847
rtibia 60.746
rfoot -7.93644 -6.00483
rtoes 14.0811
lfemur -43.4138 8.24293 -34.6636
ltibia 68.6149
lfoot -42.5227 15.2471
ltoes -5.10253
746
root 27.3118 14.7532 1.0887 -158.105 -19.6912 173.721
lowerback 30.7872 0.504422 -2.06035
upperback 7.38174 -1.41793 0.881211
thorax -8.48775 -1.24515 2.80173
lowerneck -25.8573 -9.52091 -12.338
upperneck 6.45001 -10.6048 11.367
head 7.33779 -4.59469 4.22733
rclavicle -1.43125e-014 -1.98785e-015
rhumerus -22.8343 -3.05767 -71.5909
rradius 68.5761
rwrist -16.7291
rhand -19.9218 -20.7843
rfingers 7.12502
rthumb 6.41533 -50.6672
lclavicle -1.43125e-014 -1.98785e-015
lhumerus -5.43653 -35.1219 76.3046
lradius 74.0484
lwrist 24.3118
lhand -26.4963 -18.3923
lfingers 7.12502
lthumb 0.0663808 11.5875
rfemur -73.1125 -13.4749 30.4531
rtibia 60.8902
rfoot -8.76747 -7.49337
rtoes 14.5694
lfemur -43.4727 8.67582 -34.8152
ltibia 68.6857
lfoot -42.6752 14.9731
ltoes -5.18952
747
root 27.2051 14.7426 0.963493 -158.475 -19.3855 173.587
lowerback 31.1712 0.372247 -1.82987
upperback 7.43124 -1.53964 1.10926
thorax -8.60403 -1.31923 2.98459
lowerneck -26.1382 -9.32505 -12.5667
upperneck 6.5644 -10.1809 10.9355
head 7.34584 -4.4291 4.1811
rclavicle 1.43125e-014 -2.18663e-014
rhumerus -22.2473 -2.62256 -71.1477
rradius 68.3898
rwrist -17.0354
rhand -20.077 -21.0801
rfingers 7.12502
rthumb 6.26547 -50.9674
lclavicle 1.43125e-014 -2.18663e-014
lhumerus -5.33857 -34.9793 76.47
lradius 74.2013
lwrist 23.9649
lhand -26.5536 -18.8361
lfingers 7.12502
lthumb 0.0110598 11.1437
rfemur -71.7244 -12.4298 28.591
rtibia 61.0871
rfoot -10.2369 -8.07924
rtoes 18.526
lfemur -42.3099 8.72123 -35.2177
ltibia 68.6346
lfoot -43.1784 15.2602
ltoes -5.2893
748
root 27.0995 14.7267 0.833254 -158.604 -18.8806 173.273
lowerback 31.2935 0.359529 -1.61895
upperback 7.46179 -1.51604 1.068
thorax -8.63404 -1.319 2.81097
lowerneck -26.2916 -9.16841 -12.2806
upperneck 6.61986 -9.96734 10.3572
head 7.30752 -4.36707 3.97328
rclavicle 1.82882e-014 1.35174e-014
rhumerus -21.8597 -2.5751 -70.9422
rradius 68.207
rwrist -17.5879
rhand -20.5965 -21.5438
rfingers 7.12502
rthumb 5.76397 -51.4454
lclavicle 1.82882e-014 1.35174e-014
lhumerus -5.26034 -35.1645 76.3793
lradius 74.4215
lwrist 23.7005
lhand -26.4246 -19.0221
lfingers 7.12502
lthumb 0.135619 10.9576
rfemur -70.687 -11.5506 26.9282
rtibia 61.3814
rfoot -11.5001 -8.30227
rtoes 20.5242
lfemur -41.4762 9.0336 -35.9621
ltibia 68.799
lfoot -43.4163 15.8393
ltoes -6.47459
